<?xml version="1.0" encoding="UTF-8" standalone="no"?>
<svg
   xmlns:dc="http://purl.org/dc/elements/1.1/"
   xmlns:cc="http://creativecommons.org/ns#"
   xmlns:rdf="http://www.w3.org/1999/02/22-rdf-syntax-ns#"
   xmlns:svg="http://www.w3.org/2000/svg"
   xmlns="http://www.w3.org/2000/svg"
   xmlns:sodipodi="http://sodipodi.sourceforge.net/DTD/sodipodi-0.dtd"
   xmlns:inkscape="http://www.inkscape.org/namespaces/inkscape"
   width="200mm"
   height="200mm"
   viewBox="0 0 200 200"
   version="1.1"
   id="svg8"
   inkscape:version="1.0.2 (e86c8708, 2021-01-15)"
   sodipodi:docname="allowsign.svg">
  <defs
     id="defs2" />
  <sodipodi:namedview
     id="base"
     pagecolor="#ffffff"
     bordercolor="#666666"
     borderopacity="1.0"
     inkscape:pageopacity="0.0"
     inkscape:pageshadow="2"
     inkscape:zoom="0.49987837"
     inkscape:cx="505.47798"
     inkscape:cy="680.81225"
     inkscape:document-units="mm"
     inkscape:current-layer="layer3"
     inkscape:document-rotation="0"
     showgrid="false"
     inkscape:window-width="1663"
     inkscape:window-height="943"
     inkscape:window-x="0"
     inkscape:window-y="25"
     inkscape:window-maximized="0" />
  <metadata
     id="metadata5">
    <rdf:RDF>
      <cc:Work
         rdf:about="">
        <dc:format>image/svg+xml</dc:format>
        <dc:type
           rdf:resource="http://purl.org/dc/dcmitype/StillImage" />
        <dc:title />
      </cc:Work>
    </rdf:RDF>
  </metadata>
  <g
     inkscape:groupmode="layer"
     id="layer3"
     inkscape:label="background"
     style="display:inline" />
  <g
     inkscape:label="レイヤー 1"
     inkscape:groupmode="layer"
     id="layer1"
     style="display:inline">
    <g
       id="g70"
       transform="matrix(0.89999912,0,0,0.90000143,6.0559382,-40.21096)"
       style="fill:#ffffff">
      <path
         id="path68"
         style="fill:#ffffff;fill-rule:evenodd;stroke-width:0.277778"
         d="M 104.31418,55.789873 A 100,100 0 0 0 4.3822952,155.78997 100,100 0 0 0 104.38239,255.78955 100,100 0 0 0 204.38249,155.78997 100,100 0 0 0 104.38239,55.789873 a 100,100 0 0 0 -0.0682,0 z m 0.0682,19.999811 a 79.999998,79.999998 0 0 1 80.00029,80.000286 79.999998,79.999998 0 0 1 -80.00029,79.99977 79.999998,79.999998 0 0 1 -79.999764,-79.99977 79.999998,79.999998 0 0 1 79.999764,-80.000286 z" />
    </g>
    <g
       id="g19"
       transform="translate(-4.3822952,-55.789867)">
      <path
         id="path10"
         style="fill:#000000;fill-rule:evenodd;stroke-width:0.277778"
         d="M 104.31418,55.789873 A 100,100 0 0 0 4.3822952,155.78997 100,100 0 0 0 104.38239,255.78955 100,100 0 0 0 204.38249,155.78997 100,100 0 0 0 104.38239,55.789873 a 100,100 0 0 0 -0.0682,0 z m 0.0682,19.999811 a 79.999998,79.999998 0 0 1 80.00029,80.000286 79.999998,79.999998 0 0 1 -80.00029,79.99977 79.999998,79.999998 0 0 1 -79.999764,-79.99977 79.999998,79.999998 0 0 1 79.999764,-80.000286 z" />
    </g>
  </g>
</svg>
